<?xml version="1.0" encoding="utf-8"?>
<!-- Generator: Adobe Illustrator 25.0.0, SVG Export Plug-In . SVG Version: 6.00 Build 0)  -->
<svg version="1.1" id="andre-portfolio_x5F_2_xA0_Imagem_1_"
	 xmlns="http://www.w3.org/2000/svg" xmlns:xlink="http://www.w3.org/1999/xlink" x="0px" y="0px" viewBox="0 0 1080 820"
	 style="enable-background:new 0 0 1080 820;" xml:space="preserve">
<style type="text/css">
	.st0{fill:#2E2440;}
	.st1{fill:#392A67;}
	.st2{fill:#8A5B7D;}
	.st3{fill:#392A66;}
	.st4{fill:#865C83;}
	.st5{fill:#855C83;}
	.st6{fill:#392B67;}
	.st7{fill:#787684;}
	.st8{fill:#3C326A;}
	.st9{fill:#658CA4;}
	.st10{fill:#836383;}
	.st11{fill:#6A8CA0;}
	.st12{fill:#806886;}
	.st13{fill:#668CA4;}
	.st14{fill:#865F80;}
	.st15{fill:#708B9B;}
	.st16{fill:#6A829D;}
	.st17{fill:#7B7E89;}
	.st18{fill:#7B848E;}
	.st19{fill:#856483;}
	.st20{fill:#7B6E8C;}
	.st21{fill:#798893;}
	.st22{fill:#758A97;}
	.st23{fill:#6189A2;}
	.st24{fill:#5C829E;}
	.st25{fill:#71859D;}
	.st26{fill:#7E728D;}
	.st27{fill:#816B88;}
	.st28{fill:#577998;}
	.st29{fill:#6F7B97;}
	.st30{fill:#7A7993;}
	.st31{fill:#758098;}
	.st32{fill:#767390;}
	.st33{fill:#727793;}
	.st34{fill:#414174;}
	.st35{fill:#537092;}
	.st36{fill:#3C326B;}
	.st37{fill:#50688E;}
	.st38{fill:#4C5F88;}
	.st39{fill:#3E386E;}
	.st40{fill:#44497A;}
	.st41{fill:#495782;}
	.st42{fill:#47507E;}
	.st43{fill:#777E97;}
	.st44{fill:#678BA3;}
	.st45{fill:#73839B;}
	.st46{fill:#7B7791;}
	.st47{fill:#6E88A0;}
	.st48{fill:#557495;}
	.st49{fill:#6088A1;}
	.st50{fill:#5A7F9C;}
	.st51{fill:#50698E;}
	.st52{fill:#816A87;}
	.st53{fill:#7E708C;}
	.st54{fill:#4C5E87;}
	.st55{fill:#485480;}
	.st56{fill:#444979;}
	.st57{fill:#846482;}
	.st58{fill:#3B2F69;}
	.st59{fill:#875E7F;}
	.st60{fill:#414073;}
	.st61{fill:#3E376E;}
	.st62{fill:#6D89A0;}
</style>
<g>
	<g>
		<path class="st0" d="M0.09,679.94c0-28.99,0-57.99,0-86.98c1.55-4.48,1.49-9.26,2.08-13.86c0.62-4.85,2.22-9.24,3.79-13.72
			c0.14-6.25,3.79-11.3,5.92-16.86c2.52-6.57,5.59-12.89,9.46-18.79c1.04-4.82,3.64-8.8,6.56-12.68
			c5.09-6.76,9.45-14.07,15.16-20.37c7.18-8.54,14.95-16.47,23.99-23.08c6.38-6.83,14.35-11.38,22.47-15.71
			c1.73-0.93,3.61-1.58,4.92-3.16c12.05-5.36,23.94-11.14,36.82-14.37c1.38-0.34,2.06-1.62,3.35-2
			c12.19-2.39,23.88-6.57,35.75-10.09c4.62-1.37,9.68-1.51,13.81-4.42c32.67-9.7,63.9-22.59,92.14-42
			c6.19-4.25,11.48-9.57,16.88-14.73c10.2-8.43,17.26-19.38,24.27-30.37c3.23-6.62,5.63-13.58,8.61-20.3
			c1.6-4.33,2.59-8.83,3.33-13.37c0.32-1.97,0.6-3.9,1.67-5.63c1.69-4.45,0.83-9.16,1.45-13.73c1.01-8.89,1.67-17.77-0.05-26.66
			c-0.8-4.1-1.85-8.14-2.71-12.22c-1.95-15.94-7.51-30.44-17.24-43.29c-8.09-17.18-21.84-30.4-32.19-46.02
			c-3.1-4.68-5.94-9.57-9.88-13.67c1.24-3.56-2.04-5.25-3.24-7.79c-4.56-9.66-8.18-19.66-10.57-30.08c-0.44-1.93-1-3.87-1.07-5.88
			c0.21-2.18-0.24-4.29-0.59-6.43c-2.92-17.89-0.53-35.12,7.14-51.48c7.49-15.97,20.64-26.02,36.14-33.52
			c8.49-4.11,17.59-5.43,26.77-6.61c250.01,0,500.03,0.01,750.04-0.1c3.93,0,4.93,0.61,4.93,4.79c-0.14,151.4-0.12,302.8-0.12,454.2
			c-1.79,7.83-5.77,14.62-10.09,21.25c-0.47,0.72-0.4,1.58-0.45,2.39c-1.28,4.11-5.57,6.56-6.14,11.07
			c-0.59,3.62-2.79,6.41-4.79,9.31c-1.41,3.96-2.53,8.03-4.61,11.72c-1.1,3.05-2.38,6.03-3.5,9.07c0.18,3.4-3.29,5.18-3.67,8.33
			c-0.72,2.95,0.22,6.23-1.76,8.92c-2.44,3.88-1.51,8.68-3.46,12.7c-1.29,4.25-2.21,8.57-2.66,13c-0.89,2.52-1.12,5.2-2.14,7.67
			c-0.56,5.07-0.29,10.24-1.89,15.18c-0.01,7.19-1.98,14.33-0.56,21.55c0.3,1.49,0.03,2.9-0.29,4.33c-1.61,5.05-0.9,10.14-0.66,15.3
			c0.39,8.27,0.26,16.58,0.1,24.87c-0.04,0.96,0.01,1.91-0.04,2.87c-1.1,1.4-1.37,2.93-1.2,4.74c0.52,5.79,0.84,11.59-1.01,17.24
			c0.47,3.95,0.52,7.91-0.02,11.87c-0.17,0.53-0.4,1.02-0.7,1.49c-1.64,4.89-0.36,10.28-2.52,15.08c-1.11,3.77-1.39,7.72-2.37,11.52
			c-3.53,5.48-4,12.45-8.45,17.49c-3.02,4.07-5.77,8.37-9.88,11.5c-5.36,5.95-11.2,11.27-18.86,14.16
			c-11.5,7.74-24.49,12.41-37.1,17.84c-13.23,5.7-26.64,10.99-39.01,18.48c-6.79,3.25-12.57,7.93-17.96,13.06
			c-3.07,2.92-6.34,5.35-10.27,6.91c-268.95,0-537.89,0-806.84,0c-3.53-2.08-7.17-4.04-8.93-8.08c-2.87-3.98-5.88-7.85-8.92-11.7
			c-16.69-21.21-32.32-43.08-44.26-67.44C6.79,715.96,1.14,698.62,0.09,679.94z"/>
		<path class="st0" d="M0.09,456.99C0.09,306.19,0.11,155.4,0,4.6C0,0.85,0.84,0,4.59,0.01c81.82,0.12,163.63,0.1,245.45,0.1
			c1.64,1.77,0.52,2.89-0.89,4.01c-7.15,5.65-13.29,12.38-19.78,18.73c-14.5,16.55-23.88,35.5-26.6,57.46
			c-0.37,2.97-1.54,5.68-1.79,8.61c0.87,5.92-0.29,11.87,0.24,17.81c1.04,7.63,1.74,15.3,3.11,22.88
			c0.99,6.43,3.42,12.51,4.51,18.92c1.92,5.9,4.6,11.51,6.62,17.37c0.48,1.39,1.47,2.61,1.31,4.18c4.43,8.3,7.96,17.14,14.2,24.4
			c0.31,2.94,1.79,5.15,3.6,7.53c6.27,8.26,11.98,16.94,18.53,25c0.18,0.23,0.12,0.64,0.14,0.96c3.08,5.38,7.28,10.09,9.8,15.81
			c1.76,4,5.09,7.2,5.9,11.69c-0.53,2.83,1.4,5.01,2.13,7.48c2.66,9,2.38,18.3,3.3,27.48c-1.93,10.77-4.87,21.18-10.99,30.43
			c-4.73,6.76-11.15,11.54-18.32,15.39c-1.16,0.62-2.39,1.06-3.09,2.28c-7.13,3.1-14.5,5.59-21.87,8.1
			c-7.96,2.44-15.99,4.58-24.31,5.33c-0.69,0.06-1.07,0.52-1.67,0.55c-1.65,1.83-3.93,1.34-5.98,1.63
			c-5.67,0.81-11.12,2.76-16.85,3.18c-5.87,2.17-12.12,2.65-18.15,4.1c-1.77,0.43-3.55,0.53-4.86,1.98
			c-6.4,0.43-12.33,3.08-18.63,3.99c-1.11,0.16-1.58,1.04-2.23,1.75c-6.26,1.23-12.36,3.12-18.48,4.93
			c-5.34,3.13-11.38,4.59-17.02,7.01c-5.27,3.25-11.19,5.15-16.64,8.05c-5.31,3.41-10.51,7.01-16.31,9.59
			c-20.69,15.29-37.97,33.83-52.66,54.9C5.05,455.38,4.24,459.73,0.09,456.99z"/>
		<path class="st0" d="M0.09,567.96c0-32.99,0-65.98,0-98.98C2.05,459,8.81,451.78,14.56,444c10.41-14.08,22.94-26.14,36.06-37.64
			c3.13-2.74,7.28-4,10.05-7.21c5.32-3.72,11.28-6.36,16.67-9.96c3.09-1.95,6.36-3.55,9.79-4.79c2.79-1.02,5.63-1.9,7.92-3.91
			c5.11-2.25,10.72-3.18,15.63-5.95c5.47-1.32,10.43-4.43,16.33-4.35c1.65,0.02,2.58-2.44,4.52-2.63c6.36-1.9,13.08-2.49,19.2-5.24
			c7.57-1.82,15.5-1.92,22.89-4.7c6.19-1.08,12.29-2.62,18.61-2.96c1.82-0.1,3.38-1.42,5.15-1.92c7.55-1.41,14.96-3.49,22.51-4.91
			c7.22-2.65,14.18-6.01,21.71-7.82c0.68-0.16,1.39-0.79,1.88-1.46c1.56-2.02,3.85-2.99,5.96-4.23c5.59-3.27,10.28-7.54,14.19-12.69
			c5.81-8.85,9.31-18.49,10.58-29.05c0.33-2.79-0.64-5.56,0.38-8.27c-0.18-7.76-1.04-15.42-3.66-22.77
			c-0.54-1.51-1.17-2.93-1.03-4.57c0.45-3.48-2.21-5.75-3.5-8.5c-3.08-6.54-6.49-12.95-11.99-17.92c0.04-2.49-1.08-4.29-2.6-6.33
			c-4.75-6.39-9.47-12.82-14.03-19.35c-1.44-2.06-3.29-3.7-4.94-5.56c0.55-2.1-0.39-3.43-1.68-5.17
			c-5.09-6.92-9.09-14.51-12.32-22.48c-1.45-5.27-4.78-9.78-6.1-15.13c-0.51-2.08-1.63-4.01-1.55-6.23
			c-2.03-5.46-4.22-10.89-5.43-16.62c-0.41-1.92-1.18-3.76-1.19-5.76c0.04-5.87-2.06-11.42-2.63-17.2
			c0.22-4.03,0.81-8.05-0.05-12.07c-0.56-10.58,1.5-20.9,4-31.01c4.1-16.59,12.36-31.13,23.94-43.74
			c5.17-6.79,12.01-11.88,18.17-17.66c3.39-3.19,7.77-4.61,12.05-6.13c14.66,0,29.33,0,43.99,0c0.89,1.18,1.35,2.3-0.3,3.28
			c-1.15,0.68-2.36,1.22-3.58,1.73c-28.04,11.7-43.13,32.75-46.66,62.89c-1.3,11.15,0.3,21.78,1.99,32.57
			c2.25,12.49,5.75,24.56,12.28,35.57c0.52,0.88,1.04,1.69,0.93,2.74c-0.28,2.63,2.15,3.66,3.29,5.44
			c11.59,18.18,25.04,34.99,38.07,52.12c0.19,0.25,0.23,0.59,0.23,0.93c0.14,1.04,0.17,2.02,0.93,2.98
			c7.51,9.47,11.77,20.56,15.31,31.92c1.04,3.33,3.97,6.33,2.44,10.3c2.89,10.26,4.35,20.65,3.1,31.28
			c1.04,7.65-0.37,15.16-1.51,22.67c-1.36,6.36-2.84,12.69-5.35,18.73c-1.75,7.68-5.67,14.46-8.92,21.52
			c-6.88,11.23-14.07,22.21-24.42,30.69c-12.18,12.55-26.92,21.51-42.21,29.59c-19.87,10.5-40.87,18.31-62.14,25.42
			c-2.35,0.78-4.81,1.33-6.8,2.96c-14.06,2.48-27.46,7.39-41.13,11.3c-1.91,0.54-3.76,1.26-5.74,1.5c-1.79,1.26-3.91,1.58-5.95,2.21
			c-12.2,3.76-23.9,8.82-35.46,14.18c-9.22,5.68-18.1,11.89-27.09,17.92c-7.8,7.5-15.74,14.87-22.79,23.12
			c-7.95,10.44-15.63,21.05-22.07,32.51c-6.25,11.72-10.94,24.11-15.77,36.44C3.67,566.41,4.26,570.48,0.09,567.96z"/>
		<path class="st0" d="M1079.88,476.99c0,112.97-0.02,225.95,0.1,338.92c0,3.42-0.67,4.1-4.09,4.1
			c-59.99-0.13-119.98-0.1-179.96-0.1c-1.61-1.75-0.42-2.81,0.82-4.09c4.68-4.79,10.51-7.97,15.97-11.68
			c1.5-1.02,3.04-1.98,4.37-3.22c7.7-2.64,14.57-7.07,22.02-10.29c16.86-7.29,34.14-13.66,50.37-22.38
			c1.76-0.94,3.32-1.93,4.66-3.34c6.07-3.48,11.76-7.48,16.86-12.29c2.6-4.94,7.26-8.25,10.2-12.92c2.33-4.64,4.19-9.48,6.54-14.11
			c0.93-5.11,3.24-9.85,4.09-14.98c0.26-4.84,1.16-9.59,2.14-14.32c-0.02-5.05,0.21-10.08,0.86-15.09c0.92-0.76,1.14-2.12,0.99-2.89
			c-1.11-5.62-0.19-11.11,0.73-16.61c-0.32-10.83-0.12-21.66-0.14-32.48c0.84-2.99-0.19-5.98,0-8.97
			c-0.88-5.54,1.41-10.9,1.01-16.42c-1.29-6.79,2.66-13.05,1.97-19.78c1.5-6.09,0.86-12.53,2.91-18.54c0.7-3.31,1.55-6.59,2.25-9.9
			c1.58-3.41,1.95-7.18,3.27-10.67c1.29-3.55,0.41-7.72,3.13-10.86c1.5-2.23,1.06-5.11,2.44-7.38c1.39-2.86,1.51-6.18,3.23-8.92
			c2.06-3.79,2.82-8.24,5.8-11.57c2.42-3.47,1.92-8.07,4.44-11.49c2.93-3.43,2.6-8.59,6.2-11.66c1.27-1.72,1.77-3.85,3.15-5.54
			C1077.39,476.07,1078.45,475.76,1079.88,476.99z"/>
		<path class="st0" d="M70.08,819.9c-22.1,0-44.21-0.09-66.31,0.09c-3.27,0.03-3.76-0.93-3.75-3.89
			c0.11-37.06,0.07-74.11,0.07-111.17c3.14-2.26,3.2,0.69,3.74,2.35c5.51,16.67,13.01,32.42,22.2,47.33
			c10.22,16.57,21.73,32.28,33.7,47.63c2.16,2.77,4.02,5.66,5.57,8.77c1.39,1.83,3.46,2.98,4.77,4.94
			C71.07,817.42,71.2,818.58,70.08,819.9z"/>
		<path class="st1" d="M64.11,811.89C38.73,779.83,14.01,747.37,1.23,707.7c-0.31-0.95-0.75-1.85-1.13-2.77c0-8.33,0-16.66,0-24.99
			c4.04,16.82,8.69,33.43,16.09,49.16c11.97,25.45,28.41,47.97,45.57,70.03c2.95,3.79,6.18,7.39,8.29,11.78
			C68.41,813.31,66.28,812.73,64.11,811.89z"/>
		<path class="st2" d="M253.02,101.14c-7.64-35.92,0.14-79.17,44.83-97.89c2.12-0.89,4.48-1.4,6.18-3.14c7,0,14,0,21,0
			c-11.46,3.5-22.84,7.15-33.37,13.09c-22.09,12.47-32.49,31.83-34.78,56.55c-0.89,9.57,0.69,18.88,1.09,28.31
			C256.38,99.19,255.57,101.56,253.02,101.14z"/>
		<path class="st3" d="M62.06,401c-9.06,6.98-17.93,14.13-26.04,22.29c-12.59,12.68-23.28,26.77-33.03,41.66
			c-0.91,1.38-1.93,2.7-2.9,4.04c0-4,0-8,0-12c7.31-9.28,14.35-18.79,21.99-27.8c10.49-12.36,22.28-23.38,36-32.19
			C60.28,397.46,61.92,398.48,62.06,401z"/>
		<path class="st4" d="M918.32,803.11c-7.39,5.7-15.79,10.06-22.4,16.8c-4,0-8,0-12,0c7.22-9.5,16.47-16.52,26.95-22.02
			C914.41,798.12,917.64,798.8,918.32,803.11z"/>
		<path class="st5" d="M260.04,0.1c-9.9,7.72-19.59,15.67-28.09,24.96c-1.25,1-2.76,1.27-3.93,0.27c-1.5-1.28-0.73-2.93-0.05-4.42
			c6.62-7.72,14.25-14.37,22.07-20.81C253.38,0.1,256.71,0.1,260.04,0.1z"/>
		<path class="st6" d="M1079.88,476.99c-1.7,2.63-3.4,5.26-5.1,7.89c-2.96-0.08-6.2,0.59-7.91-2.9c3.22-8.3,7.9-15.77,13.01-22.99
			C1079.88,464.99,1079.88,470.99,1079.88,476.99z"/>
		<path class="st7" d="M0.09,567.96c2.08-1.02,1.66-3.53,2.99-5.01c2.8-2.15,3.46,1.03,5,2c-2.92,9.26-4.36,18.94-7.99,28
			C0.09,584.63,0.09,576.3,0.09,567.96z"/>
		<path class="st8" d="M64.11,811.89c1.9-0.79,3.83-1.39,5.93-0.98c2.84,2.62,5.32,5.51,7.04,9c-2.33,0-4.67,0-7,0
			C68.09,817.23,66.1,814.56,64.11,811.89z"/>
		<path class="st2" d="M918.32,803.11c-2.97-1.05-5.4-2.87-7.45-5.23c10.32-7.15,22.01-11.58,33.42-16.46
			c14.66-6.26,29.38-12.33,43.54-19.69c3.1,1.21,6.96,1.24,8.27,5.25c-14.29,9.19-30.16,15.06-45.63,21.8
			C939.72,793.47,929.04,798.33,918.32,803.11z"/>
		<path class="st9" d="M180.06,422.11c39.8-13.07,78.72-27.88,110.75-56.24c2.21-0.14,5.25-1.42,4.16,3.01
			c-22.44,23.13-51.01,35.91-80.29,47.42c-9.55,3.76-19.04,7.79-29.19,9.82C179.28,426.91,178.37,426.24,180.06,422.11z"/>
		<path class="st10" d="M307.71,198.16c-12.73-17.75-26.8-34.54-38.46-53.07c-0.97-1.54-2.08-3-2.33-4.87
			c-0.41-3.32,0.82-3.17,3.33-1.92c1.45,0.72,2.27,1.94,3.51,2.75c11.77,18.76,26.42,35.44,38.68,53.85
			c1.1,1.65,2.01,3.43,3.01,5.16c-1.25,2.36-2.69,1.34-4.25,0.32C310.06,199.62,308.86,198.93,307.71,198.16z"/>
		<path class="st11" d="M180.06,422.11c1.17,2.21,3.04,3.47,5.44,4.02c-7.3,3.35-15.17,4.89-22.81,7.17
			c-9.09,2.71-18.23,5.25-27.34,7.86c-1.78,0.22-3.62-0.1-4.38-1.72c-0.75-1.6,0.74-2.55,2.05-3.26
			C148.45,430.62,164.36,426.71,180.06,422.11z"/>
		<path class="st12" d="M307.71,198.16c2.74,0.01,5.27,0.85,7.75,1.89c8.91,13.43,14.53,28.16,17.49,43.96
			c-3.02,2.88-3.75-2.11-6.03-1.75C322.69,226.62,316.41,211.86,307.71,198.16z"/>
		<path class="st13" d="M1038.74,628.93c0,11,0,22,0,33c-3.54,3.2-4.52,2.99-8.46-1.8c-0.88-0.86-0.84-2.06-1.16-3.13
			c0.14-0.37,0.27-0.75,0.41-1.12c1.7-1.82,0.76-4.05,0.8-6.07c0.13-7.1,0.02-14.21,0.07-21.32c0.01-1.91-0.64-4.45,1.75-5.17
			c2.65-0.79,4.18,1.57,5.59,3.38C1038.18,627.28,1038.46,628.17,1038.74,628.93z"/>
		<path class="st14" d="M273.77,141.05c-2.23-0.69-4.4-1.9-6.84-0.83c-7.28-12.09-11.82-25.15-13.91-39.08
			c0.43-2.97,2.06-4.03,4.94-3.08c2.62,10.56,5.16,21.15,9.84,31.05C269.71,133.13,271.78,137.08,273.77,141.05z"/>
		<path class="st15" d="M133.03,436.18c-0.59,2.3,0.61,3.76,2.32,4.99c-13.55,4.87-27.07,9.8-40.12,15.92
			c-2.83,0.1-5.5,0.04-4.16-4.1C104.35,445.62,118.42,440.23,133.03,436.18z"/>
		<path class="st16" d="M294.98,368.89c-1.39-1-2.78-2.01-4.16-3.01c8.76-9.15,16.44-19.13,23.16-29.87
			c1.11-1.38,2.19-3.18,4.29-2.11c1.78,0.91,1.48,2.64,0.82,4.24C312.8,349.77,305.5,360.59,294.98,368.89z"/>
		<path class="st17" d="M8.09,564.96c-1.67-0.67-3.34-1.34-5-2c3.73-12.79,8.77-25.01,15.81-36.35c2.61-0.38,3.84,0.96,4.22,3.37
			C17.71,541.47,12.54,553.06,8.09,564.96z"/>
		<path class="st18" d="M23.12,529.98c-1.71-0.75-3.2-1.77-4.22-3.37c5.66-12.05,13.54-22.59,22.2-32.6
			c2.69-0.04,2.99,2.15,3.71,3.96c-4.68,6.62-9.42,13.19-14,19.88C28.11,521.79,25.68,525.93,23.12,529.98z"/>
		<path class="st19" d="M996.1,766.99c-3.49-0.6-6.47-1.99-8.27-5.25c6.34-4.18,12.82-8.2,18.07-13.81
			c4.33-0.37,5.69,2.61,6.71,5.97C1008,759.38,1002.12,763.28,996.1,766.99z"/>
		<path class="st20" d="M326.93,242.26c2.82-2.22,4.21,0.52,6.03,1.75c1.16,8.3,3.32,16.47,3.12,24.96
			c-0.13,5.45,0.18,10.92-0.93,16.31c-3.17,0.03-2.5-2.57-2.57-4.23c-0.11-2.66-0.19-5.18-2.48-7.01
			C330.23,263.33,328.52,252.8,326.93,242.26z"/>
		<path class="st21" d="M44.81,497.96c-1.82-0.77-3.04-2.11-3.71-3.96c6.58-8.75,14.56-16.1,23-23c2.63,0.07,4.32,1.1,4.14,4.05
			C60.42,482.69,52.62,490.33,44.81,497.96z"/>
		<path class="st22" d="M68.23,475.06c-1.38-1.35-2.76-2.7-4.14-4.05c8.33-7,17.19-13.21,26.98-18.03c1.39,1.37,2.77,2.73,4.16,4.1
			C86.03,462.77,76.72,468.3,68.23,475.06z"/>
		<path class="st23" d="M1038.74,628.93c-0.86-0.5-1.71-1.02-2.58-1.48c-3.95-2.08-5.04-1.58-5.17,2.84
			c-0.18,6.12-0.08,12.25-0.1,18.37c-0.01,2.49-0.04,4.98-1.34,7.23c0.87-11.58,0.14-23.18,0.42-34.76
			c0.05-2.11-0.49-4.34,1.02-6.22c0.78-1.75,0.34-3.6,0.38-5.4c0.03-2.06,0.19-4.29,2.52-4.63c2.21-0.32,3.83,1.29,4.9,3.27
			c0.75,1.4,0.53,2.89,0.61,4.37c0.14,2.8-0.38,5.63,0.32,8.41C1039.39,623.59,1039.07,626.26,1038.74,628.93z"/>
		<path class="st24" d="M1039.71,620.92c-0.3-2.44-0.66-4.87-0.89-7.32c-0.25-2.62-0.91-5.23-3.88-5.53
			c-3.55-0.36-2.65,3.01-3.38,4.95c-0.23,0.61-0.38,1.26-0.57,1.89c-0.27-8.71-0.17-17.39,1.95-25.93c4.46-1.79,7.37-0.21,7.39,4.3
			c0.02,3.58,0.57,7.21-0.41,10.75C1039.85,609.66,1039.78,615.29,1039.71,620.92z"/>
		<path class="st25" d="M1029.13,657.02c0.28,0.65,0.55,1.3,0.83,1.94c1.63,1.89,2.53,4.14,2.36,6.57
			c-0.43,6.26,2.16,11.42,5.46,16.4c-0.71,4.99-0.49,10.1-1.87,15c-4.32,3.12-7.55,1.5-8.17-4.08l0.07,0.14
			c1.56-3.96-0.32-8.2,1.01-12.18C1028.93,672.88,1029.03,664.95,1029.13,657.02z"/>
		<path class="st26" d="M1029.71,726.92c-1.98,4.83-3.39,9.94-6.95,13.99c-4.94,1.94-6.63,1.07-7.79-3.97
			c3.58-5.29,4.99-11.58,7.82-17.21C1027.07,720.23,1027.19,724.72,1029.71,726.92z"/>
		<path class="st27" d="M1014.97,736.93c2.42,1.68,4.94,3.16,7.79,3.97c-1.86,5.52-6.86,8.59-10.15,12.99
			c-2.88-1.26-4.86-3.54-6.71-5.97C1008.92,744.26,1011.95,740.6,1014.97,736.93z"/>
		<path class="st28" d="M1039.93,604.04c-0.02-1.33-0.18-2.67-0.03-3.98c0.66-5.59-1.6-9.29-6.96-11.07
			c-0.55-5.16,0.4-10.14,1.91-15.04c4.85-1.72,7.74,0.28,7.53,5.28c-0.07,1.62,0.38,3.29-0.45,4.84
			C1041.21,590.71,1041.43,597.46,1039.93,604.04z"/>
		<path class="st29" d="M319.08,338.15c-1.14-2.05-2.86-2.73-5.11-2.14c3.04-7,6.08-14,9.12-21c0.79-1.32,1.85-2.61,3.45-1.78
			c1.69,0.87,2.2,2.57,1.46,4.46C325.87,324.88,323.15,331.81,319.08,338.15z"/>
		<path class="st30" d="M1029.71,726.92c-3.95-0.81-6.55-2.93-6.92-7.19c0.87-3.65,1.4-7.39,3.1-10.8c3.38-1.93,6.03-0.92,8.2,2.02
			C1033.1,716.4,1031.73,721.75,1029.71,726.92z"/>
		<path class="st31" d="M1034.1,710.95c-3.11,0.84-5.62-0.75-8.2-2.02c-0.19-5.45,1.42-10.7,1.85-16.08
			c2.08,2.64,5.04,3.53,8.17,4.08C1036.44,701.75,1034.99,706.31,1034.1,710.95z"/>
		<path class="st32" d="M330.09,274.04c6.46,1.6,4.43,7.02,5.05,11.24c-0.07,4.4-0.28,8.78-2,12.93c-1.88-0.21-4.27,1.95-5.52-1.19
			C329.03,289.42,329.89,281.77,330.09,274.04z"/>
		<path class="st33" d="M327.62,297.03c2.05-0.59,3.95-0.45,5.52,1.19c-1.54,6.54-1.76,13.43-5.14,19.48
			c-1.01-2.05-2.58-3.05-4.91-2.68C324.6,309.02,326.11,303.02,327.62,297.03z"/>
		<path class="st34" d="M1063.93,507.02c-1.71,3.91-3.42,7.82-5.13,11.72c-2.9-0.91-6.24-1.16-7.2-4.91
			c1.33-4.15,3.07-8.13,5.19-11.93C1062.04,500.79,1063.61,501.92,1063.93,507.02z"/>
		<path class="st35" d="M1041.93,584.06c0.58-5.43-2.35-8.4-7.08-10.11c-0.51-2.78,0.34-5.38,1.1-7.98c0.21-0.45,0.49-0.88,0.42-1.4
			c-0.25-1.83,0.35-3.47,2.06-4.03c1.91-0.63,3.08,1.17,4.24,2.3c0.88,0.86,1.28,2.19,2.16,3.14
			C1043.87,572,1042.9,578.03,1041.93,584.06z"/>
		<path class="st36" d="M1066.87,481.98c2.99,0,5.67,0.88,7.92,2.9c-1.95,3.71-3.91,7.43-5.86,11.14c-3.29,0.61-6.31,0.49-8.04-3.04
			C1062.1,488.89,1064.45,485.41,1066.87,481.98z"/>
		<path class="st37" d="M1044.84,565.97c-1.2-0.52-2.53-0.85-3.56-1.6c-2.58-1.86-4.17-1.03-5.32,1.59c0.42-4.46,1.11-8.85,2.94-13
			c1.18-1.42,1.46-4.28,4.35-3.04c2.61,1.12,4.54,2.84,3.7,6.13C1046.24,559.36,1045.54,562.67,1044.84,565.97z"/>
		<path class="st38" d="M1046.94,556.06c-2.03-2.74-4.21-5.06-8.05-3.09c0.42-4.63,2.02-8.92,3.74-13.18
			c4.81-1.2,7.16,0.47,7.25,5.17C1049.34,548.77,1048.6,552.54,1046.94,556.06z"/>
		<path class="st39" d="M1060.88,492.98c3,0.16,5.7,1.13,8.04,3.04c-1.23,3.86-2.45,7.73-4.99,11c-1.99-2.24-4.55-3.7-7.13-5.12
			C1058.16,498.93,1059.52,495.95,1060.88,492.98z"/>
		<path class="st40" d="M1051.6,513.84c2.84,0.99,5.76,1.86,7.2,4.91c-1.03,3.05-2.06,6.1-3.08,9.15c-4.33,1.19-6.24-1.44-7.66-4.84
			C1049.24,519.98,1050.42,516.91,1051.6,513.84z"/>
		<path class="st41" d="M1049.88,544.95c-1.87-2.49-4.89-3.36-7.25-5.17c0.38-2.71,0.7-5.44,2.18-7.85
			c4.03-2.78,5.64-2.18,8.15,3.05C1052.24,538.4,1051.53,541.82,1049.88,544.95z"/>
		<path class="st42" d="M1052.96,534.99c-2.72-1.01-5.19-2.69-8.15-3.05c1.08-2.96,2.17-5.92,3.25-8.89
			c2.88,1.09,5.53,2.56,7.66,4.84C1054.8,530.25,1053.88,532.62,1052.96,534.99z"/>
		<path class="st31" d="M1028.82,680.81c-0.04,4.08,0.63,8.23-1.01,12.18C1028.67,688.97,1027.29,684.77,1028.82,680.81z"/>
		<path class="st2" d="M227.97,20.92c0.72,1.96,2,3.39,3.98,4.15c-15.78,17.87-24.86,38.61-26.72,62.43
			c-0.27,3.47-0.32,6.95-0.46,10.43c-3.43,1.73-2.94-1.25-3.07-2.82c-0.21-2.62-0.39-5.14-2.52-7.02
			C200.91,62.32,210.25,39.82,227.97,20.92z"/>
		<path class="st43" d="M235.96,198.09c7.3,10.31,15.27,20.16,21.87,30.97c-2.26,4.14-4.53-0.24-6.79,0.01
			c-7.86-10.87-16.32-21.32-23.02-33c1.14-2.87,3.04-1.55,4.56-0.62C233.77,196.17,234.78,197.26,235.96,198.09z"/>
		<path class="st44" d="M276.92,285.03c0.48,14.04-2.98,26.88-11.61,38.14c-3.42,1.35-5.12,0.48-4.44-3.45
			c5.91-8.72,8.9-18.49,10.38-28.81c0.53-1.45,0.22-2.96,0.29-4.44c0.07-1.65-0.12-3.56,1.84-4.19
			C275.62,281.57,275.73,284.1,276.92,285.03z"/>
		<path class="st45" d="M251.04,229.07c2.26-0.97,4.53-0.37,6.79-0.01c5.05,6.78,9.37,13.99,12.64,21.8
			c0.69,1.66,1.05,3.46,1.56,5.19c-2.62,3.34-4.33,0.82-6.17-0.94C261.94,245.84,256.37,237.52,251.04,229.07z"/>
		<path class="st46" d="M235.96,198.09c-2.65-0.67-5.29-1.35-7.94-2.02c-5.16-7.88-9.76-16.05-13.03-24.92
			c1.58-3.68,1.65-3.68,6.09-0.09C226.04,180.07,231,189.08,235.96,198.09z"/>
		<path class="st47" d="M265.86,255.1c2.06,0.31,4.11,0.63,6.17,0.94c3.62,9.33,5.67,18.92,4.89,28.99
			c-5.32-1.35-4.58,3.15-5.67,5.88C271.68,278.64,269.88,266.71,265.86,255.1z"/>
		<path class="st48" d="M220.97,349.6c-7.45,2.44-15,4.47-22.8,5.47c-1.47,0.92-2.93,0.36-4.27-0.22c-0.99-0.43-2.6-0.39-2.73-1.8
			c-0.18-1.85,1.19-2.55,2.83-2.76c8.68-2.04,17.35-4.08,26.03-6.13C222.12,345.66,222.27,347.51,220.97,349.6z"/>
		<path class="st49" d="M260.87,319.72c1.48,1.15,2.96,2.3,4.44,3.45c-5.08,7.73-12.33,12.8-20.51,16.74
			c-5.02-0.07-5.19-0.24-3.73-3.78C248.27,331.4,255.57,326.77,260.87,319.72z"/>
		<path class="st50" d="M241.06,336.14c0.9,1.6,2.25,2.75,3.73,3.78c-7.25,4.93-15.53,7.32-23.83,9.69
			c-0.88-1.71-2.49-3.3-0.95-5.44C227.03,341.49,234.05,338.81,241.06,336.14z"/>
		<path class="st51" d="M193.99,350.29c-1.3,3.95,2.19,3.71,4.18,4.78c-7.78,2.62-15.9,3.59-23.93,5.03
			c-0.89,0.54-1.91,0.59-2.8,0.27c-1.36-0.49-3.31-0.72-3.57-2.31c-0.33-2.03,1.7-2.38,3.16-2.98
			C178.69,353.49,186.34,351.89,193.99,350.29z"/>
		<path class="st52" d="M207.28,128.02c1.88,7.35,3.77,14.7,5.65,22.06c-2.66,3.8-4.15,0.02-6.07-0.94
			c-2.42-6.15-4.04-12.5-4.8-19.06c-1.07-1.92-0.46-3.82,1.18-4.62C205.38,124.39,206.14,126.78,207.28,128.02z"/>
		<path class="st53" d="M206.85,149.13c2.02,0.31,4.05,0.63,6.07,0.94c2.72,6.99,5.44,13.98,8.15,20.98
			c-2.03-0.26-4.07-0.69-6.09,0.09C211.46,164.11,208.72,156.79,206.85,149.13z"/>
		<path class="st54" d="M171.04,355.09c-2.03,3.65,0.98,4.08,3.21,5.01c-7.58,2.28-15.4,3.43-23.15,4.95
			c-2.65-0.49-5.52-0.79-3.87-4.77C155.11,358.29,162.95,356.12,171.04,355.09z"/>
		<path class="st55" d="M147.22,360.29c1.29,1.59,2.58,3.18,3.87,4.77c-6.14,2.19-12.45,3.74-18.83,5.07
			c-1.73,0.69-3.4,0.37-5.11-0.19c-2.35-0.77-2.93-1.86-1.01-3.71C133.04,363.77,140.09,361.87,147.22,360.29z"/>
		<path class="st56" d="M126.15,366.22c1.37,2.36,3.59,3.37,6.12,3.91c-7.06,2.3-14.13,4.61-21.19,6.91
			c-1.95-1.02-6.43-0.52-2.94-4.85C113.98,369.71,119.93,367.56,126.15,366.22z"/>
		<path class="st57" d="M207.28,128.02c-2.26-0.63-4.25-0.6-5.22,2.05c-1.96-7.54-3.02-15.19-2.88-22.99
			c4.06-3.08,4.68-2.66,5.81,3.94C205.75,116.69,206.51,122.36,207.28,128.02z"/>
		<path class="st58" d="M62.06,401c-1.94-0.72-3.26-2.06-3.98-4c5.18-3.58,10.42-7.08,16.1-9.84c2.09,0.6,4.91,0.45,4.07,4.01
			C73.18,394.98,67.62,397.99,62.06,401z"/>
		<path class="st59" d="M204.98,111.03c-1.13-2.5-2.96-3.97-5.81-3.94c-1.52-6.33-0.41-12.67,0-19c6.03,0.91,4.31,6.23,5.59,9.84
			C204.84,102.29,204.91,106.66,204.98,111.03z"/>
		<path class="st60" d="M108.14,372.18c0.98,1.62,1.96,3.23,2.94,4.85c-4.99,2-9.99,3.99-14.98,5.99c-2.02,1.13-4.13,0.48-5.71-0.55
			c-1.06-0.7-0.48-2.42,0.72-3.37C96.58,376.27,102.18,373.79,108.14,372.18z"/>
		<path class="st61" d="M91.12,379.1c0.87,2.31,2.62,3.5,4.98,3.92c-5.95,2.72-11.9,5.43-17.85,8.15c-1.36-1.34-2.71-2.67-4.07-4.01
			C79.68,384.16,85.07,380.95,91.12,379.1z"/>
		<path class="st62" d="M1037.78,681.93c-5.92-2.11-8.69-6.09-7.95-12.55c0.39-3.43,0.11-6.94,0.13-10.42
			c2.88,1.15,5.54,2.93,8.79,2.98C1037.55,668.56,1038.23,675.27,1037.78,681.93z"/>
	</g>
</g>
</svg>
